PathFileType	4	(X/Y/Z)	D:\TRACE\spotREDO_2-26-24\spot_justArm_Motion_1_5-v60.trc
DataRate	CameraRate	NumFrames	NumMarkers	Units	OrigDataRate	OrigDataStartFrame	OrigNumFrames
100.00	100.00	      38	9	mm	100.00	5251	      7000
Frame#	Time	front left toe			Front right toe			aft left toe			aft right toe			Arm			FL body			FR body			AL Body			AR Body			
		X1	Y1	Z1	X2	Y2	Z2	X3	Y3	Z3	X4	Y4	Z4	X5	Y5	Z5	X6	Y6	Z6	X7	Y7	Z7	X8	Y8	Z8	X9	Y9	Z9	

5251	52.500	-215.24634	16.70177	-160.20067	212.10413	19.01441	-140.18387	-236.77762	23.22507	460.48413	180.91679	29.61892	418.06961	-82.74615	681.14020	-814.05518	-88.59743	540.33948	-222.33083	67.32422	543.12531	-217.81259	-121.89879	576.25067	660.33807	26.19109	575.22919	666.52600	
5252	52.510	-214.02667	16.78740	-160.20595	213.18253	19.08093	-140.05222	-236.01645	22.89582	460.50180	181.27295	29.26675	418.23297	-81.53397	681.22675	-813.77850	-86.92806	540.37610	-222.20969	68.82126	543.30890	-217.67622	-121.06984	575.79791	660.53442	26.73413	574.92841	666.58856	
5253	52.520	-212.83607	17.16680	-160.32065	214.39903	19.13439	-139.84239	-234.96065	22.47503	460.63892	182.29935	28.89658	418.39722	-80.85645	681.10400	-813.60504	-85.40757	540.51495	-222.14357	70.46357	543.49030	-217.36064	-120.46393	575.36859	660.43549	27.45609	574.55096	666.93994	
5254	52.530	-212.03624	17.26521	-160.00471	215.45113	18.50619	-140.27956	-234.16148	22.36750	460.84485	183.49271	28.77114	418.35995	-80.42242	681.08917	-813.40924	-83.88142	540.77838	-222.19583	71.88721	543.59302	-217.40381	-119.45196	575.10883	660.28473	28.77617	573.90887	667.18756	
5255	52.540	-210.97920	17.48996	-160.01195	216.33279	19.23962	-139.54790	-233.04932	21.92352	461.02609	184.26790	28.45169	418.41980	-79.98035	681.13171	-813.15222	-82.33324	540.94556	-222.01640	73.51956	543.72546	-216.80194	-118.28153	574.94537	660.59753	29.35704	573.64667	667.23694	
5256	52.550	-210.06223	17.54475	-160.06526	217.16679	19.44511	-139.33546	-231.91473	21.77949	461.13577	185.64677	28.18171	418.68832	-79.48912	680.99969	-812.81964	-81.11796	541.22729	-222.03810	74.65532	543.98132	-217.03526	-117.03464	574.48248	660.85248	30.67045	573.43378	667.35101	
5257	52.560	-209.03386	17.72566	-159.87067	217.73956	19.52327	-139.88969	-230.96596	21.57010	461.32474	186.38820	27.84979	418.81131	-79.72363	680.97345	-812.96356	-79.71310	541.14764	-221.93748	76.07387	543.92944	-216.95163	-115.59547	574.24335	661.03149	31.99615	573.07550	667.41211	
5258	52.570	-208.23276	17.83822	-159.57622	218.84760	19.45999	-139.61510	-230.00397	21.28817	461.37033	187.24525	27.56326	418.84464	-79.95484	680.87024	-812.89423	-78.61610	541.13281	-221.71744	77.41913	543.83362	-216.43587	-114.60672	573.90308	661.00098	33.36752	572.82092	667.46179	
5259	52.580	-207.23393	17.79006	-159.49217	219.75511	19.48902	-139.57643	-229.23607	21.22644	461.40649	188.47900	27.10886	419.06506	-80.11057	680.69122	-812.67291	-77.45833	541.34778	-221.75891	78.35478	543.96692	-216.61778	-113.47431	573.67230	661.04803	34.57902	572.59265	667.60126	
5260	52.590	-206.31383	17.94325	-159.50912	220.02055	19.41737	-140.20033	-228.09842	20.92248	461.42966	188.95758	26.72922	419.04617	-80.14447	680.36542	-812.45355	-76.21032	541.26599	-221.57312	79.62527	544.06396	-216.83749	-111.74078	573.38226	661.12469	36.13778	572.29669	667.62390	
5261	52.600	-205.66771	18.21590	-159.41690	220.64528	19.47411	-140.10141	-227.31754	20.69927	461.68262	190.15796	26.46795	419.03561	-80.05341	679.89587	-812.46967	-75.43704	541.37939	-221.45590	80.40849	544.02563	-216.88080	-110.23313	573.19940	661.05377	37.72653	572.00323	667.69501	
5262	52.610	-204.79385	18.39611	-159.11150	222.16899	19.69272	-139.47133	-226.19699	20.36423	461.86838	191.09364	26.03396	419.17886	-80.25945	679.65997	-812.02686	-74.42056	541.25452	-221.30363	81.41062	543.94482	-216.88112	-108.76098	573.05908	661.39368	39.31036	571.56732	667.72974	
5263	52.620	-203.79997	18.19647	-158.94713	224.28561	21.23661	-138.29861	-225.23636	20.06722	461.89810	192.00842	25.74414	419.26440	-80.02420	679.49652	-811.76917	-73.57438	541.30634	-221.06653	82.24986	543.94647	-216.85948	-106.96236	572.69006	661.48267	40.76020	571.39355	667.74652	
5264	52.630	-202.89920	18.41276	-158.89859	224.89194	21.24217	-138.22398	-224.44043	19.85309	461.90353	193.30978	25.66035	419.36874	-79.87560	679.40802	-811.67517	-72.48091	541.31848	-221.08160	83.40520	543.98590	-216.83638	-105.63190	572.51849	661.53314	42.29902	571.22412	667.63495	
5265	52.640	-202.27190	18.56902	-158.96616	225.49892	21.19943	-138.18307	-223.26698	19.47036	462.03961	193.88109	24.99994	419.42905	-79.33892	679.25134	-811.56732	-71.68453	541.52930	-221.03833	84.17449	544.16272	-216.88922	-103.97318	572.08856	661.92847	43.96624	570.82611	667.92957	
5266	52.650	-201.52579	18.82780	-158.99644	226.52281	21.51278	-138.01332	-222.49834	19.25859	462.18863	194.65138	24.76253	419.53033	-78.88793	679.12457	-811.58258	-70.98943	541.74219	-220.94724	84.73531	544.17786	-216.94133	-102.36892	571.90479	662.17548	45.41933	570.50909	667.95685	
5267	52.660	-200.59454	18.68056	-158.74307	227.46024	21.73418	-137.85997	-221.57445	18.91637	462.25214	196.16219	24.65350	419.58945	-78.24009	679.10028	-811.51508	-70.24395	541.87604	-220.74997	85.67106	544.33331	-216.84100	-101.00723	571.73785	662.16193	47.10540	570.22693	668.02911	
5268	52.670	-199.50021	18.81818	-158.13596	228.12988	21.80955	-137.91431	-220.68199	18.75175	462.31335	196.43817	24.03638	419.62039	-77.19458	679.18903	-811.34222	-69.15604	542.05530	-220.57530	86.60953	544.52734	-216.68073	-99.65219	571.43939	662.27649	48.24577	569.95313	668.10175	
5269	52.680	-198.86589	19.31616	-158.11232	229.26601	21.96564	-137.79782	-220.04726	18.51947	462.41574	197.22905	23.73346	419.76254	-76.13467	679.09845	-811.29065	-68.35145	542.12421	-220.50899	87.63494	544.78320	-216.60091	-98.22066	571.06506	662.46271	49.61456	569.68475	668.24054	
5270	52.690	-198.15253	19.45319	-158.09418	230.01532	21.98821	-137.65367	-219.11510	18.00446	462.41727	198.28535	23.59128	419.86969	-75.02126	679.04834	-811.18799	-67.44487	542.46136	-220.36478	88.40710	544.96045	-216.59047	-96.99485	570.93542	662.68469	50.84011	569.28247	668.35272	
5271	52.700	-197.33470	19.32476	-158.07819	230.71529	22.14414	-137.40027	-218.37959	17.64580	462.50961	198.99687	23.18846	419.88232	-73.61584	679.19977	-811.03107	-66.52995	542.81134	-220.26901	89.38238	545.14630	-216.42860	-96.04548	570.55725	662.62164	51.98529	569.01489	668.45490	
5272	52.710	-196.41391	19.46033	-157.93690	231.65144	22.68444	-137.21281	-217.39128	17.28202	462.62146	199.84428	23.08634	420.15277	-72.29795	679.39124	-810.81885	-65.29084	542.91034	-220.08783	90.50471	545.46893	-216.14931	-94.94102	570.21893	662.96228	53.00494	568.88171	668.45807	
5273	52.720	-195.33180	19.77379	-157.66945	232.48625	22.42420	-137.51643	-216.55678	16.85575	462.85666	201.12506	23.21695	420.46301	-70.90864	679.55957	-811.27399	-64.21548	542.99890	-219.81963	91.67236	545.70306	-216.15327	-93.96561	569.96899	663.08282	54.05156	568.60016	668.64917	
5274	52.730	-194.75471	19.90442	-157.55594	233.30606	22.57957	-137.22948	-215.92705	16.62232	463.00433	201.56750	22.44834	420.34796	-69.19852	679.62012	-811.10443	-63.10525	543.45905	-219.79314	92.66682	545.85339	-215.95316	-93.15247	569.67664	663.04120	54.83778	568.27014	668.82349	
5275	52.740	-193.88329	20.06566	-157.44717	233.61517	22.95214	-137.20175	-215.26662	16.25563	462.97784	201.93724	21.91950	420.47775	-68.18327	679.78619	-810.86371	-62.05276	543.67108	-219.75499	93.99089	545.92334	-215.58025	-92.14213	569.34473	663.32837	55.93380	567.96075	669.07312	
5276	52.750	-193.05885	20.20886	-157.39568	234.97255	23.32937	-136.69339	-214.59103	15.89550	463.00082	202.95187	21.89231	420.77188	-66.97272	679.91943	-810.81964	-60.90134	543.71246	-219.51288	95.04614	546.25159	-215.73701	-90.94870	569.24152	663.65503	56.71144	567.65417	669.09283	
5277	52.760	-192.35597	20.38833	-157.41203	235.44055	22.68869	-136.95123	-213.87042	15.66922	463.04840	203.73474	21.58076	420.84705	-65.41930	679.98505	-810.67188	-59.47869	543.98938	-219.47266	96.46315	546.34326	-215.54662	-90.54570	569.00983	663.67462	57.65931	567.32324	669.41614	
5278	52.770	-191.73320	20.58574	-157.50124	236.18983	22.78840	-136.56001	-212.99281	15.23742	463.19852	204.36633	21.21608	420.97980	-64.55653	680.17255	-810.64734	-58.32798	544.15472	-219.50037	97.59420	546.55878	-215.48630	-89.72357	568.66382	663.86188	58.45454	567.07806	669.54150	
5279	52.780	-190.80466	20.81402	-157.39328	236.71684	23.13427	-136.28741	-212.36029	15.07118	463.40530	205.04886	20.94680	421.05365	-63.60105	680.27283	-810.54004	-57.01905	544.26666	-219.32132	98.85208	546.66071	-215.15750	-88.87842	568.31500	663.92200	59.36396	566.69513	669.69946	
5280	52.790	-189.98175	20.98585	-157.09998	238.15553	23.39204	-135.92311	-211.62691	14.60100	463.71213	206.11548	20.95033	421.34827	-62.73828	680.21204	-810.48053	-55.53810	544.47211	-219.09772	100.15253	546.90674	-214.91232	-88.11929	567.97363	664.08038	60.30056	566.27814	669.88916	
5281	52.800	-189.34384	21.21782	-157.17441	238.54401	22.85562	-136.40837	-211.02867	14.25255	463.78329	206.70415	20.46609	421.37253	-61.92302	680.18420	-810.20129	-54.47168	544.57324	-219.19395	101.40606	546.97455	-214.81480	-87.39455	567.80707	663.96100	61.27985	566.01624	670.09467	
5282	52.810	-188.72229	21.47845	-157.05339	239.10715	23.01866	-136.21100	-210.26910	14.02441	463.74435	206.79770	19.82816	421.36221	-61.08965	680.31079	-810.11432	-53.12221	544.76483	-218.93555	102.64225	547.21191	-214.46471	-86.49030	567.49017	664.28302	62.00741	565.66284	670.15826	
5283	52.820	-188.06158	21.65599	-157.06316	239.70869	23.20754	-136.04881	-209.78456	14.01657	463.75311	207.58186	19.66389	421.53058	-60.52141	680.28156	-809.92474	-51.78449	545.03204	-218.93895	103.94830	547.31091	-214.24518	-85.69227	567.25116	664.38654	63.15386	565.23529	670.43970	
5284	52.830	-187.40756	21.86887	-157.06308	240.42096	23.31203	-135.96161	-208.86667	13.62839	463.82227	208.78508	19.47726	421.79385	-60.14034	680.27240	-809.85089	-50.68219	545.07141	-218.79495	105.23022	547.33185	-214.11517	-84.79007	567.01056	664.38385	63.93326	565.10730	670.63953	
5285	52.840	-186.80173	22.10873	-156.92757	241.14948	23.22922	-135.71007	-208.44946	13.36547	463.89160	209.10420	19.13708	421.85629	-59.62419	680.24310	-809.70996	-49.46549	545.07074	-218.61833	106.46958	547.43079	-213.77747	-83.94112	566.72864	664.75854	65.05322	564.89307	670.84827	
5286	52.850	-186.10818	22.10747	-156.68333	241.80479	23.41360	-135.29155	-207.85623	13.09543	464.03177	209.69095	18.83088	421.70996	-59.20323	680.15692	-809.36859	-48.09487	545.14014	-218.33788	107.73734	547.70959	-213.88026	-82.97649	566.52594	664.91840	66.15468	564.51196	670.99774	
5287	52.860	-185.44081	22.17524	-156.44200	242.21121	23.42060	-135.10446	-207.11745	12.63271	464.17331	210.11829	18.48033	421.85294	-58.84601	680.08557	-809.04102	-47.19342	545.24213	-218.25568	108.64114	547.72858	-213.81476	-82.06262	566.16901	665.18188	67.05708	564.21722	671.18146	
5288	52.870	-184.87817	22.50793	-156.51422	242.77243	23.56395	-135.14305	-206.55441	12.23778	464.40652	211.15898	18.23951	422.02563	-58.57550	679.91290	-808.71027	-45.93359	545.36383	-217.92360	110.06203	547.81799	-213.46355	-80.94659	565.71912	665.42523	68.18725	563.86530	671.22864	
